<svg width="72" height="60" viewBox="0 0 72 60" fill="none" xmlns="http://www.w3.org/2000/svg">
<path fill-rule="evenodd" clip-rule="evenodd" d="M53.0081 1.31688C50.8908 0.0944506 48.1833 0.819894 46.9608 2.93724C46.7593 3.28639 46.6111 3.6517 46.513 4.02363L26.1262 4.02363C25.8991 2.79312 25.1546 1.66599 23.9861 0.991278C21.8687 -0.231168 19.1613 0.494329 17.9388 2.61164C16.8469 4.50282 17.3092 6.86442 18.9291 8.21851L8.74407 25.8595C6.76144 25.1337 4.48492 25.9144 3.39305 27.8056C2.17066 29.9229 2.89608 32.6304 5.01341 33.8529C6.16742 34.5191 7.49672 34.6065 8.66535 34.2056L18.9153 51.9589C18.5719 52.2651 18.2706 52.6303 18.028 53.0505C16.8055 55.1678 17.531 57.8753 19.6483 59.0977C21.7657 60.3202 24.4731 59.5947 25.6956 57.4774C25.9356 57.0617 26.1004 56.6234 26.1944 56.178L46.461 56.1781C46.7323 57.3224 47.4558 58.357 48.5547 58.9914C50.672 60.2138 53.3794 59.4883 54.6019 57.371C55.6324 55.5861 55.2789 53.3818 53.874 52.0013L64.1335 34.2313C66.0315 34.7577 68.1172 33.9619 69.1477 32.1771C70.3701 30.0598 69.6446 27.3523 67.5273 26.1298C66.4137 25.4869 65.137 25.383 63.9988 25.7368L53.9227 8.28455C54.1913 8.01616 54.4296 7.70863 54.6285 7.36415C55.8509 5.24679 55.1255 2.53934 53.0081 1.31688ZM47.9764 51.7209C47.5685 52.0521 47.2127 52.4619 46.9343 52.9441C46.6311 53.4694 46.448 54.031 46.376 54.5972L26.2381 54.5972C26.1754 54.187 26.0556 53.7867 25.8818 53.4091L39.3496 43.6409C39.6195 43.912 39.9289 44.1525 40.276 44.353C41.4296 45.019 42.7582 45.1067 43.9265 44.7063L47.9764 51.7209ZM20.0192 30.8916C20.2537 32.1088 20.9951 33.2215 22.1529 33.8899C22.4926 34.0861 22.8476 34.2315 23.2091 34.3296L21.486 50.853C21.0675 50.889 20.6563 50.9842 20.2652 51.1351L10.0455 33.4338C10.4422 33.1065 10.7884 32.7041 11.0607 32.2325C11.3081 31.8039 11.4758 31.3511 11.5683 30.8914L20.0192 30.8916ZM38.3213 39.0255C37.9258 40.1251 37.9925 41.3129 38.4534 42.338L24.9741 52.1145C24.7108 51.8547 24.4105 51.6237 24.0752 51.4301C23.7483 51.2414 23.4073 51.0991 23.0599 51.0012L24.7848 34.4635C25.912 34.3555 26.9841 33.8176 27.7441 32.9187L38.3213 39.0255ZM23.1999 25.7856C22.1139 26.0822 21.1399 26.7907 20.5325 27.8427C20.2624 28.3106 20.0876 28.8073 20.0017 29.3105L11.5968 29.3104C11.4321 28.2989 10.9192 27.3511 10.1091 26.658L20.3031 9.00143C20.6869 9.13695 21.081 9.21655 21.4752 9.24278L23.1999 25.7856ZM61.804 32.6628C62.0564 32.9914 62.3584 33.2881 62.7067 33.5413L52.563 51.1106C51.5248 50.6487 50.3841 50.6184 49.3628 50.9599L45.307 43.9351C45.7042 43.6076 46.0507 43.2047 46.3233 42.7326C46.9345 41.6738 47.059 40.4675 46.7656 39.3731L61.804 32.6628ZM41.5978 36.1834C40.6476 36.3791 39.7649 36.8846 39.1121 37.6564L28.5348 31.5492C28.8795 30.5904 28.873 29.5644 28.5601 28.6379L38.8119 22.7187C39.1447 23.1312 39.5572 23.491 40.0437 23.7718C40.5383 24.0573 41.065 24.2362 41.5975 24.3162L41.5978 36.1834ZM38.3764 17.8083C37.7618 18.9274 37.6816 20.2011 38.0553 21.3302L27.7953 27.2539C27.4654 26.8501 27.0581 26.4984 26.5798 26.2223C26.0077 25.892 25.3926 25.7041 24.7753 25.6472L23.0456 9.06478C23.7163 8.86352 24.3404 8.50405 24.8567 8.00238L38.3764 17.8083ZM61.0118 28.9168C60.8213 29.6981 60.8515 30.5058 61.0797 31.2548L46.0908 37.9431C45.7345 37.4443 45.2684 37.0118 44.7029 36.6853C44.2175 36.4051 43.701 36.2277 43.1786 36.1454L43.1787 24.2678C44.3322 24.022 45.3835 23.3188 46.0404 22.2367L61.0118 28.9168ZM62.5955 26.4684C62.2386 26.7457 61.9199 27.0819 61.6545 27.4726L46.6083 20.7589C46.899 19.2185 46.3493 17.6073 45.1318 16.5704L49.3157 9.3237C50.4124 9.71383 51.5956 9.64534 52.6169 9.18511L62.5955 26.4684ZM46.3914 5.60469C46.5077 6.72359 47.0474 7.78538 47.9437 8.53799L43.7653 15.7751C42.2522 15.2249 40.5695 15.5514 39.3733 16.5782L25.7758 6.71558C25.9463 6.35545 26.0641 5.98196 26.1316 5.60457L46.3914 5.60469Z" fill="white"/>
</svg>
